<svg version="1.1" xmlns="http://www.w3.org/2000/svg" xmlns:xlink="http://www.w3.org/1999/xlink" width="213.0521" height="227.1984" viewBox="0,0,213.0521,227.1984"><g transform="translate(-133.47395,-66.4008)"><g data-paper-data="{&quot;isPaintingLayer&quot;:true}" fill-rule="nonzero" stroke="none" stroke-width="1" stroke-linecap="butt" stroke-linejoin="miter" stroke-miterlimit="10" stroke-dasharray="" stroke-dashoffset="0" style="mix-blend-mode: normal"><path d="M346.52561,261.26284v19.45694c0,7.10172 -6.37024,12.87897 -14.20344,12.87897h-184.64477c-7.8332,0 -14.20344,-5.77725 -14.20344,-12.87897v-19.45694c0,-14.19634 8.96415,-31.07669 26.10105,-35.87612l33.61156,-6.29701c0.21527,-0.03817 0.43365,-0.05903 0.65203,-0.05903h92.32238c0.21838,0 0.4372,0.02086 0.65203,0.05903l33.31018,6.22422c17.43872,4.87223 26.40243,21.75257 26.40243,35.94892z" fill="#996459"/><path d="M222.78876,293.59876l6.60682,-39.64181c0.28451,-1.71329 1.76522,-2.96852 3.50248,-2.96852h14.20344c1.73726,0 3.21797,1.25567 3.50248,2.96852l6.60682,39.64181z" fill="#4bb9ec"/><path d="M239.6478,250.98842l12.55363,12.55496l2.00846,12.05118l-23.67803,-23.68025c0.63383,-0.57124 1.45896,-0.92589 2.3662,-0.92589z" fill="#009bca"/><path d="M254.20367,247.43002c0,5.88111 -4.77857,10.65968 -10.65258,10.65968h-7.10172c-5.87401,0 -10.65258,-4.77813 -10.65258,-10.64903l-0.02441,-7.01828c-0.00355,-0.55793 0.12472,-1.10609 0.37462,-1.60188l3.55086,-7.10172c0.6032,-1.2033 1.83091,-1.96274 3.17625,-1.96274h17.7543c1.95919,0 3.54731,1.58457 3.55086,3.54376z" fill="#3482ac"/><path d="M243.52667,222.65433v7.10172c0,0.55127 -0.12827,1.09944 -0.37817,1.59167l-3.52645,7.02893c-0.11096,0.22548 -0.24989,0.44031 -0.40924,0.63472l-14.71299,18.2674c-0.07989,0.10031 -0.16645,0.19752 -0.25655,0.28762c-1.34178,1.33867 -3.13807,2.0737 -5.01071,2.0737c-0.22548,0 -0.45407,-0.01021 -0.6831,-0.03107c-2.11187,-0.20107 -4.00848,-1.32447 -5.20157,-3.08259l-21.64827,-31.9542c-0.85309,-1.25523 -0.80826,-2.91659 0.10741,-4.1301l13.40228,-17.7543c1.06437,-1.40792 3.01335,-1.83091 4.5633,-0.96051l31.93334,17.8271c1.1234,0.62761 1.8207,1.8136 1.8207,3.0999z" fill="#b4b6bc"/><path d="M238.24521,219.55443l31.93334,-17.8271c1.54995,-0.8704 3.49893,-0.44741 4.5633,0.96051l13.40228,17.7543c0.91568,1.21351 0.96051,2.87487 0.10741,4.1301l-21.64827,31.9542c-1.19309,1.75812 -3.08969,2.88152 -5.20157,3.08259c-0.22903,0.02086 -0.45762,0.03107 -0.6831,0.03107c-1.87264,0 -3.66893,-0.73503 -5.01071,-2.0737c-0.0901,-0.0901 -0.17666,-0.18731 -0.25655,-0.28762l-14.71255,-18.2674c-0.15934,-0.19441 -0.29827,-0.40924 -0.40924,-0.63472l-3.52645,-7.02893c-0.24989,-0.49224 -0.37817,-1.0404 -0.37817,-1.59167v-7.10172c0,-1.2863 0.69686,-2.47229 1.82026,-3.0999z" fill="#b4b6bc"/><path d="M293.23872,133.88281c0,8.21137 0,19.1276 0,24.85603c0,35.29955 -23.84669,63.9155 -53.26291,63.9155c-29.41622,0 -53.26291,-28.61594 -53.26291,-63.9155c0,-17.06633 0,-19.97359 0,-24.85603l21.30517,-7.10172c50.59977,-6.51006 74.66528,0 74.66528,0l7.00452,7.10172c0,0 2.63163,1.02709 3.55086,0z" fill="#ffdcad"/><path d="M204.39396,158.73883c0,-7.84435 6.3591,-14.20344 14.20344,-14.20344c7.84435,0 14.20344,6.3591 14.20344,14.20344c0,7.84435 -6.3591,14.20344 -14.20344,14.20344c-7.84435,0 -14.20344,-6.3591 -14.20344,-14.20344z" fill="#aeefff"/><path d="M232.89806,158.73883c0,3.89707 -1.57392,7.42352 -4.11589,9.9899l-20.07746,-20.07746c2.56594,-2.54153 6.09283,-4.11589 9.9899,-4.11589c7.84474,0 14.20344,6.35915 14.20344,14.20344z" fill="#ffffff"/><path d="M247.0043,158.73883c0,-7.84435 6.3591,-14.20344 14.20344,-14.20344c7.84435,0 14.20344,6.3591 14.20344,14.20344c0,7.84435 -6.3591,14.20344 -14.20344,14.20344c-7.84435,0 -14.20344,-6.3591 -14.20344,-14.20344z" fill="#aeefff"/><path d="M275.50839,158.73883c0,3.89707 -1.57392,7.42352 -4.11589,9.9899l-20.07746,-20.07746c2.56594,-2.54153 6.09283,-4.11589 9.9899,-4.11589c7.84474,0 14.20344,6.35915 14.20344,14.20344z" fill="#ffffff"/><path d="M247.17474,162.28969c-1.96274,0 -3.55086,-1.58812 -3.55086,-3.55086c0,-1.95919 -1.59167,-3.55086 -3.55086,-3.55086c-1.95919,0 -3.55086,1.59167 -3.55086,3.55086c0,1.96274 -1.58812,3.55086 -3.55086,3.55086c-1.96274,0 -3.55086,-1.58812 -3.55086,-3.55086c0,-5.87401 4.77857,-10.65258 10.65258,-10.65258c5.87401,0 10.65258,4.77857 10.65258,10.65258c0,1.96274 -1.58857,3.55086 -3.55086,3.55086z" fill="#5c546a"/><path d="M204.56441,158.73883h-17.85151c-1.96274,0 -3.55086,-1.58812 -3.55086,-3.55086c0,-1.96274 1.58812,-3.55086 3.55086,-3.55086h17.85151c1.96274,0 3.55086,1.58812 3.55086,3.55086c0,1.96274 -1.58857,3.55086 -3.55086,3.55086z" fill="#5c546a"/><path d="M293.23872,158.73883h-17.6571c-1.96274,0 -3.55086,-1.58812 -3.55086,-3.55086c0,-1.96274 1.58812,-3.55086 3.55086,-3.55086h17.6571c1.96274,0 3.55086,1.58812 3.55086,3.55086c0,1.96274 -1.58812,3.55086 -3.55086,3.55086z" fill="#5c546a"/><path d="M218.76785,176.49314c-9.78928,0 -17.7543,-7.96502 -17.7543,-17.7543c0,-9.78928 7.96502,-17.7543 17.7543,-17.7543c9.78928,0 17.7543,7.96502 17.7543,17.7543c0,9.78928 -7.96547,17.7543 -17.7543,17.7543zM218.76785,148.08625c-5.87401,0 -10.65258,4.77857 -10.65258,10.65258c0,5.87401 4.77857,10.65258 10.65258,10.65258c5.87401,0 10.65258,-4.77857 10.65258,-10.65258c0,-5.87401 -4.77857,-10.65258 -10.65258,-10.65258z" fill="#868491"/><path d="M261.37818,176.49314c-9.78928,0 -17.7543,-7.96502 -17.7543,-17.7543c0,-9.78928 7.96502,-17.7543 17.7543,-17.7543c9.78928,0 17.7543,7.96502 17.7543,17.7543c0,9.78928 -7.96547,17.7543 -17.7543,17.7543zM261.37818,148.08625c-5.87401,0 -10.65258,4.77857 -10.65258,10.65258c0,5.87401 4.77857,10.65258 10.65258,10.65258c5.87401,0 10.65258,-4.77857 10.65258,-10.65258c-0.00044,-5.87401 -4.77857,-10.65258 -10.65258,-10.65258z" fill="#868491"/><path d="M224.86024,191.84795c-1.92457,0 -3.81451,-0.62406 -5.37156,-2.53487c-1.23437,-1.52243 -1.00578,-3.75903 0.51665,-4.99695c1.52598,-1.23437 3.75903,-1.00578 4.99695,0.51665c0.36751,0.05548 2.27477,-0.60675 3.51269,-1.02975c3.71376,-1.26588 8.80081,-3.00314 13.54476,0.37817c1.59878,1.13761 1.96984,3.35334 0.83223,4.95168c-1.13761,1.59167 -3.35334,1.96629 -4.95168,0.83223c-1.65426,-1.18244 -3.80031,-0.57568 -7.13634,0.56192c-1.76877,0.6032 -3.87355,1.32092 -5.9437,1.32092z" fill="#ffffff"/><path d="M255.13976,191.84795c-2.0666,0 -4.17492,-0.71772 -5.9437,-1.32136c-3.33914,-1.13406 -5.48564,-1.74436 -7.13634,-0.56192c-1.59522,1.14071 -3.81451,0.76299 -4.95168,-0.83223c-1.13761,-1.59878 -0.76654,-3.81451 0.83223,-4.95168c4.73685,-3.37421 9.83056,-1.6436 13.54476,-0.37817c1.23792,0.423 3.10345,1.09233 3.69645,0.93299c1.23437,-1.51888 3.37731,-1.70264 4.9033,-0.46827c1.52243,1.23437 1.66092,3.51979 0.42655,5.04178c-1.55395,1.9148 -3.447,2.53887 -5.37156,2.53887z" fill="#ffffff"/><path d="M242.7153,242.62437c-0.67244,0.80116 -1.66802,1.26233 -2.71508,1.26233c-1.04706,0 -2.04219,-0.46117 -2.71508,-1.26233c-12.95132,-15.38233 -11.52609,-40.50867 -11.4604,-41.56993c0.11762,-1.87264 1.66757,-3.32893 3.54376,-3.32893h21.26344c1.87574,0 3.42569,1.4563 3.54376,3.32893c0.06569,1.06126 1.49092,26.1876 -11.4604,41.56993z" fill="#ffffff"/><path d="M311.017,158.66604c-1.96274,0 -3.55086,-1.58812 -3.55086,-3.55086v-42.33647c0,-1.96274 1.58812,-3.55086 3.55086,-3.55086c1.96274,0 3.55086,1.58812 3.55086,3.55086v42.33647c0,1.96274 -1.58812,3.55086 -3.55086,3.55086z" fill="#5c546a"/><path d="M328.77175,101.87668c0,3.99161 -2.43767,7.40355 -6.21401,8.7005l-31.6941,10.86741c-0.35686,0.12162 -0.73148,0.18731 -1.10609,0.19086l-99.41035,1.24147c-0.0142,0 -0.03151,0 -0.04527,0c-0.39193,0 -0.7803,-0.06613 -1.15137,-0.19086l-35.31775,-12.10888c-3.77634,-1.29695 -6.21401,-4.70889 -6.21401,-8.7005c0,-3.99161 2.43767,-7.40355 6.21401,-8.7005l72.22717,-24.76237c7.82654,-2.68401 16.45069,-2.68401 24.27013,0l72.22717,24.76237c3.77634,1.29695 6.21445,4.70889 6.21445,8.7005z" fill="#5c546a"/><g><g fill="#5d647f"><path d="M186.73731,137.43367v-28.40689c0,-12.19898 27.60928,-17.7543 53.26291,-17.7543c25.65364,0 53.26291,5.55532 53.26291,17.7543v28.40689c-9.44396,-5.13676 -26.62436,-7.52694 -41.08391,-8.36228c-3.76524,-0.27386 -7.80169,-0.44208 -12.17901,-0.44208c-4.37732,0 -8.41377,0.16867 -12.17901,0.44208c-14.45999,0.83534 -31.63995,3.22507 -41.08391,8.36228z"/></g><g fill="#5c546a"><path d="M293.26269,119.67936v9.02274c0,-3.09324 -18.66643,-10.65258 -53.26291,-10.65258c-34.59648,0 -53.26291,7.55934 -53.26291,10.65258v-9.02274c12.32637,-6.70491 37.85395,-8.73157 53.26291,-8.73157c15.4094,0 40.93699,2.0271 53.26291,8.73157z"/></g><g fill="#68748d"><path d="M293.26269,109.02678v28.40689c-9.44396,-5.13676 -26.62436,-7.52694 -41.08391,-8.36228c-3.76524,-0.27386 -7.80169,-0.44208 -12.17901,-0.44208c-0.00843,0 -0.01598,0.00044 -0.02441,0.00044v-37.35683c0.00799,0 0.01642,-0.00044 0.02441,-0.00044c25.65364,0 53.26291,5.55532 53.26291,17.7543z"/></g><g fill="#5d647f"><path d="M240.00022,110.94779c15.40896,0 40.93654,2.0271 53.26291,8.73157v9.02274c0,-3.09324 -18.66643,-10.65258 -53.26291,-10.65258c-0.00843,0 -0.01598,0.00044 -0.02441,0.00044v-7.10172c0.00755,0 0.01642,-0.00044 0.02441,-0.00044z"/></g></g><path d="M314.54389,180.044h-7.10172c-1.96096,0 -3.55086,-1.5899 -3.55086,-3.55086v-14.20344c0,-3.92237 3.17935,-7.10172 7.10172,-7.10172c3.92237,0 7.10172,3.17935 7.10172,7.10172v14.20344c0,1.96096 -1.5899,3.55086 -3.55086,3.55086z" fill="#ffe671"/><path d="M310.99303,155.18797v24.85603h-3.55086c-1.96096,0 -3.55086,-1.5899 -3.55086,-3.55086v-14.20344c0,-3.92237 3.17935,-7.10172 7.10172,-7.10172z" fill="#ffcd00"/><path d="M168.98389,269.85726v23.7415h-21.30605c-7.8332,0 -14.20344,-5.77725 -14.20344,-12.87897v-19.45694c0,-9.33211 3.89796,-19.8036 11.42046,-27.26129l15.76849,15.76893c5.32718,5.32762 8.32011,12.55274 8.32011,20.08678z" fill="#b4b6bc"/><path d="M346.52605,261.26328v19.45694c0,7.10172 -6.37024,12.87897 -14.20344,12.87897h-21.30428v-23.7415c0,-7.53404 2.99293,-14.7596 8.32055,-20.08678l15.7352,-15.73564c7.57132,7.47456 11.45153,17.91809 11.45197,27.228z" fill="#b4b6bc"/><path d="M256.64044,290.17439l0.57036,3.42436h-7.18827l-23.34292,-23.34514l1.43499,-8.60773z" fill="#009bca"/><path d="M224.94413,280.6683l12.93002,12.93046h-10.04228l-4.32229,-4.32273z" fill="#009bca"/></g></g></svg>