<?xml version="1.0" encoding="UTF-8"?>
<svg xmlns="http://www.w3.org/2000/svg" xmlns:xlink="http://www.w3.org/1999/xlink" width="1920" height="1088" viewBox="0 0 1920 1088">
<rect x="-192" y="-108.8" width="2304" height="1305.6" fill="rgb(100%, 100%, 100%)" fill-opacity="1"/>
<path fill="none" stroke-width="2" stroke-linecap="butt" stroke-linejoin="miter" stroke="rgb(0%, 0%, 100%)" stroke-opacity="1" stroke-miterlimit="10" d="M 353.377714 354.846285 C 353.377714 358.305254 353.310621 363.553346 353.183892 370.590559 C 353.057162 377.6315 352.926706 385.824189 352.799976 395.168625 C 352.673247 404.513061 352.54279 414.625328 352.41606 425.505427 C 352.289331 436.385526 352.158874 447.392354 352.032145 458.52964 C 351.905415 469.663198 351.808504 480.576843 351.74514 491.26312 C 351.681775 501.953125 351.711594 511.711295 351.838323 520.545086 C 351.96878 529.375149 352.129055 536.926735 352.31915 543.199845 C 352.512971 549.472954 352.863341 553.759393 353.377714 556.062888 C 352.863341 553.759393 352.512971 549.472954 352.31915 543.199845 C 352.129055 536.926735 351.96878 529.375149 351.838323 520.545086 C 351.711594 511.711295 351.681775 501.953125 351.74514 491.26312 C 351.808504 480.576843 351.905415 469.663198 352.032145 458.52964 C 352.158874 447.392354 352.289331 436.385526 352.41606 425.505427 C 352.54279 414.625328 352.673247 404.513061 352.799976 395.168625 C 352.926706 385.824189 353.057162 377.6315 353.183892 370.590559 C 353.310621 363.553346 353.377714 358.305254 353.377714 354.846285 Z M 325.918416 433.183743 C 320.800781 432.926557 316.607526 431.167253 313.342378 427.905833 C 310.080958 424.640685 308.448384 420.704616 308.448384 416.097626 C 308.448384 410.849535 309.663496 405.217527 312.097448 399.201604 C 314.527672 393.185681 318.046279 387.553674 322.656995 382.305582 C 327.263985 377.05749 332.832628 372.70396 339.359196 369.248718 C 345.889492 365.793476 353.247257 364.063991 361.439945 364.063991 C 367.329139 364.063991 373.374881 364.958552 379.584625 366.751401 C 385.790643 368.544251 391.456196 371.455302 396.577558 375.488281 C 401.695193 379.521261 405.888448 384.735806 409.153596 391.135645 C 412.415017 397.535484 414.047591 405.344257 414.047591 414.558236 C 414.047591 423.775942 412.351652 433.057013 408.959775 442.401449 C 405.567897 451.742158 400.703721 460.095122 394.367247 467.456614 C 388.030773 474.814379 380.255546 480.606661 371.041567 484.833463 C 361.823861 489.056536 351.327678 490.718929 339.553018 489.824368 C 351.327678 490.718929 361.823861 489.056536 371.041567 484.833463 C 380.255546 480.606661 388.030773 474.814379 394.367247 467.456614 C 400.703721 460.095122 405.567897 451.742158 408.959775 442.401449 C 412.351652 433.057013 414.047591 423.775942 414.047591 414.558236 C 414.047591 405.344257 412.415017 397.535484 409.153596 391.135645 C 405.888448 384.735806 401.695193 379.521261 396.577558 375.488281 C 391.456196 371.455302 385.790643 368.544251 379.584625 366.751401 C 373.374881 364.958552 367.329139 364.063991 361.439945 364.063991 C 353.247257 364.063991 345.889492 365.793476 339.359196 369.248718 C 332.832628 372.70396 327.263985 377.05749 322.656995 382.305582 C 318.046279 387.553674 314.527672 393.185681 312.097448 399.201604 C 309.663496 405.217527 308.448384 410.849535 308.448384 416.097626 C 308.448384 420.704616 310.080958 424.640685 313.342378 427.905833 C 316.607526 431.167253 320.800781 432.926557 325.918416 433.183743 Z M 428.640118 450.049946 C 428.640118 460.54613 429.85523 468.321356 432.289182 473.375626 C 434.719406 478.433624 437.727368 480.960759 441.313067 480.960759 C 444.768309 480.960759 448.447191 478.623718 452.353441 473.953364 C 456.255964 469.283009 459.744752 462.529073 462.816078 453.69901 C 464.608928 453.82574 466.368231 455.778865 468.097716 459.554658 C 469.823473 463.330451 471.359136 468.161081 472.704705 474.050274 C 474.046547 479.935741 475.0082 486.529401 475.58221 493.823801 C 476.159948 501.121929 476.126401 508.352964 475.489027 515.520635 C 474.847925 522.688305 473.438991 529.47206 471.262226 535.871899 C 469.089188 542.271738 465.950769 547.456465 461.854425 551.426079 C 459.55093 553.602845 456.542969 555.459059 452.83054 556.994722 C 449.121839 558.530385 445.599505 559.298217 442.270992 559.298217 C 440.224684 559.298217 438.398288 558.977666 436.79926 558.336564 C 435.200233 557.699189 433.951574 556.674171 433.057013 555.265237 C 432.158725 553.856304 431.711444 552.033635 431.711444 549.793505 C 431.711444 547.553375 432.289182 544.769054 433.440929 541.440542 C 435.360508 536.322907 438.528745 531.264909 442.945641 526.274004 C 447.358808 521.283099 452.416806 516.418923 458.112178 511.681477 C 463.80755 506.94403 469.760109 502.337041 475.969853 497.856781 C 482.175871 493.376521 488.065064 489.090082 493.633707 484.993738 C 499.198622 480.897394 504.062798 477.058236 508.222507 473.472537 C 512.382216 469.890565 515.23363 466.562053 516.769293 463.490726 C 515.23363 466.562053 512.382216 469.890565 508.222507 473.472537 C 504.062798 477.058236 499.198622 480.897394 493.633707 484.993738 C 488.065064 489.090082 482.175871 493.376521 475.969853 497.856781 C 469.760109 502.337041 463.80755 506.94403 458.112178 511.681477 C 452.416806 516.418923 447.358808 521.283099 442.945641 526.274004 C 438.528745 531.264909 435.360508 536.322907 433.440929 541.440542 C 432.289182 544.769054 431.711444 547.553375 431.711444 549.793505 C 431.711444 552.033635 432.158725 553.856304 433.057013 555.265237 C 433.951574 556.674171 435.200233 557.699189 436.79926 558.336564 C 438.398288 558.977666 440.224684 559.298217 442.270992 559.298217 C 445.599505 559.298217 449.121839 558.530385 452.83054 556.994722 C 456.542969 555.459059 459.55093 553.602845 461.854425 551.426079 C 466.081226 547.456465 469.249463 542.271738 471.359136 535.871899 C 473.472537 529.47206 474.847925 522.688305 475.489027 515.520635 C 476.126401 508.352964 476.159948 501.121929 475.58221 493.823801 C 475.0082 486.529401 474.046547 479.935741 472.704705 474.050274 C 471.359136 468.161081 469.793655 463.330451 468.000805 459.554658 C 466.207956 455.778865 464.478471 453.82574 462.816078 453.69901 C 459.744752 462.529073 456.255964 469.283009 452.353441 473.953364 C 448.447191 478.623718 444.768309 480.960759 441.313067 480.960759 C 437.727368 480.960759 434.719406 478.433624 432.289182 473.375626 C 429.85523 468.321356 428.640118 460.54613 428.640118 450.049946 Z M 520.798545 380.490369 C 520.2879 389.450889 519.807073 399.626521 519.359792 411.017265 C 518.912512 422.411737 518.528596 434.283307 518.208045 446.635705 C 517.887494 458.988102 517.663854 471.403865 517.537124 483.882991 C 517.406667 496.362118 517.440214 508.073414 517.630308 519.016877 C 517.824129 529.964068 518.208045 539.81915 518.785782 548.585848 C 519.359792 557.356274 520.224535 564.169847 521.376282 569.034023 C 520.224535 564.169847 519.359792 557.356274 518.785782 548.585848 C 518.208045 539.81915 517.824129 529.964068 517.630308 519.016877 C 517.440214 508.073414 517.406667 496.362118 517.537124 483.882991 C 517.663854 471.403865 517.887494 458.988102 518.208045 446.635705 C 518.528596 434.283307 518.912512 422.411737 519.359792 411.017265 C 519.807073 399.626521 520.2879 389.450889 520.798545 380.490369 Z M 484.896827 410.827171 C 489.24663 410.827171 494.047442 410.633349 499.295533 410.249433 C 504.543625 409.865518 509.951992 409.451783 515.520635 409.000775 C 521.089277 408.553495 526.687739 408.13976 532.319746 407.755844 C 537.951753 407.371929 543.393667 407.178107 548.641758 407.178107 C 552.607646 407.178107 556.383439 407.338383 559.969138 407.658934 C 563.551109 407.979485 566.879622 408.456584 569.950948 409.097686 C 566.879622 408.456584 563.551109 407.979485 559.969138 407.658934 C 556.383439 407.338383 552.607646 407.178107 548.641758 407.178107 C 543.393667 407.178107 537.951753 407.371929 532.319746 407.755844 C 526.687739 408.13976 521.089277 408.553495 515.520635 409.000775 C 509.951992 409.451783 504.543625 409.865518 499.295533 410.249433 C 494.047442 410.633349 489.24663 410.827171 484.896827 410.827171 Z M 553.054926 372.700233 C 552.67101 375.644829 552.320641 380.412094 552.000089 387.005755 C 551.679538 393.595688 551.422352 401.117456 551.232258 409.563603 C 551.038436 418.013478 550.814796 426.910633 550.561337 436.251342 C 550.304151 445.595778 550.08051 454.492933 549.886689 462.942808 C 549.696595 471.388955 549.439408 478.940542 549.118857 485.597567 C 548.798306 492.254592 548.447937 497.051676 548.064021 499.996273 C 548.064021 497.949964 548.511301 495.389283 549.40959 492.317957 C 550.304151 489.24663 551.519263 486.011301 553.054926 482.619424 C 554.590589 479.227547 556.320074 475.80585 558.239653 472.350608 C 560.159232 468.891639 562.142176 465.790494 564.192211 463.035991 C 566.23852 460.285216 568.288556 458.045086 570.334864 456.315601 C 572.3849 454.589844 574.177749 453.725101 575.713412 453.725101 C 576.607974 453.725101 577.375805 453.982288 578.016907 454.492933 C 579.295384 455.517951 580.257037 457.053614 580.894412 459.099922 C 581.535514 461.149958 582.113251 463.419907 582.623897 465.917223 C 583.134542 468.41454 583.58555 471.038585 583.969466 473.789361 C 584.353381 476.540136 584.864027 479.067271 585.505129 481.374493 C 586.142504 483.677988 587.040792 485.694478 588.192539 487.420235 C 589.344287 489.14972 590.87995 490.204556 592.799529 490.588472 C 594.719108 490.972388 596.705779 490.622018 598.752087 489.533635 C 600.798396 488.445253 602.814885 486.90959 604.801557 484.926646 C 606.7845 482.939975 608.670533 480.766937 610.463383 478.39635 C 612.256232 476.029491 613.85526 473.755815 615.264194 471.582777 C 616.673127 469.406011 617.854693 467.516251 618.816347 465.917223 C 619.774272 464.318195 620.318464 463.453453 620.448921 463.326724 C 620.318464 463.453453 619.774272 464.318195 618.816347 465.917223 C 617.854693 467.516251 616.673127 469.406011 615.264194 471.582777 C 613.85526 473.755815 612.256232 476.029491 610.463383 478.39635 C 608.670533 480.766937 606.7845 482.939975 604.801557 484.926646 C 602.814885 486.90959 600.798396 488.445253 598.752087 489.533635 C 596.705779 490.622018 594.719108 490.972388 592.799529 490.588472 C 590.87995 490.077827 589.344287 488.989444 588.192539 487.323324 C 587.040792 485.660932 586.142504 483.677988 585.505129 481.374493 C 584.864027 479.067271 584.353381 476.540136 583.969466 473.789361 C 583.58555 471.038585 583.134542 468.41454 582.623897 465.917223 C 582.113251 463.419907 581.535514 461.149958 580.894412 459.099922 C 580.257037 457.053614 579.295384 455.517951 578.016907 454.492933 C 577.375805 453.982288 576.607974 453.725101 575.713412 453.725101 C 574.177749 453.725101 572.3849 454.589844 570.334864 456.315601 C 568.288556 458.045086 566.23852 460.285216 564.192211 463.035991 C 562.142176 465.790494 560.159232 468.891639 558.239653 472.350608 C 556.320074 475.80585 554.590589 479.227547 553.054926 482.619424 C 551.519263 486.011301 550.304151 489.24663 549.40959 492.317957 C 548.511301 495.389283 548.064021 497.949964 548.064021 499.996273 C 548.447937 497.051676 548.798306 492.254592 549.118857 485.597567 C 549.439408 478.940542 549.696595 471.388955 549.886689 462.942808 C 550.08051 454.492933 550.304151 445.595778 550.561337 436.251342 C 550.814796 426.910633 551.038436 418.013478 551.232258 409.563603 C 551.422352 401.117456 551.679538 393.595688 552.000089 387.005755 C 552.320641 380.412094 552.67101 375.644829 553.054926 372.700233 Z M 642.913585 472.861254 C 642.399213 466.97206 640.990279 462.588711 638.686784 459.707479 C 636.38329 456.826246 634.14316 455.387494 631.966394 455.387494 C 629.278984 455.387494 627.038854 456.378966 625.249732 458.365637 C 623.456882 460.348581 622.014402 462.652075 620.929747 465.276121 C 619.841365 467.900167 619.073533 470.524213 618.622525 473.148259 C 618.175245 475.772304 617.951604 477.788794 617.951604 479.197728 C 617.951604 482.011868 618.719436 484.412273 620.255099 486.395217 C 621.790762 488.378161 623.646976 489.37336 625.823742 489.37336 C 628.000507 489.37336 630.143726 488.411707 632.257127 486.492128 C 634.3668 484.572549 636.319925 482.332419 638.112774 479.771738 C 639.905624 477.211057 641.504652 474.587011 642.913585 471.8996 C 644.318792 469.21219 645.407174 467.035425 646.175006 465.373032 C 646.175006 465.373032 646.398646 464.95557 646.849654 464.124374 C 647.296935 463.293177 647.777761 462.394889 648.288406 461.436963 C 648.799052 460.47531 649.279878 459.610568 649.727159 458.842736 C 650.174439 458.074905 650.401807 457.690989 650.401807 457.690989 C 650.401807 460.378399 650.465172 463.740458 650.591901 467.773437 C 650.718631 471.80269 651.136093 475.738758 651.840559 479.581644 C 652.545026 483.420802 653.536498 486.715768 654.814975 489.466543 C 656.097179 492.221046 657.886301 493.596434 660.193523 493.596434 C 661.214814 493.596434 662.687112 492.988878 664.606691 491.773766 C 666.52627 490.554926 668.609852 489.019263 670.846255 487.163049 C 673.086385 485.306834 675.393607 483.197161 677.760466 480.826574 C 680.127326 478.459715 682.304091 476.189766 684.287035 474.013001 C 686.273706 471.836236 687.999463 469.853292 689.471762 468.060443 C 690.94406 466.267593 691.935532 464.925751 692.446177 464.027463 C 692.062261 464.925751 691.104336 466.267593 689.568672 468.060443 C 688.033009 469.853292 686.273706 471.836236 684.287035 474.013001 C 682.304091 476.189766 680.127326 478.459715 677.760466 480.826574 C 675.393607 483.197161 673.086385 485.306834 670.846255 487.163049 C 668.609852 489.019263 666.52627 490.554926 664.606691 491.773766 C 662.687112 492.988878 661.214814 493.596434 660.193523 493.596434 C 657.886301 493.596434 656.097179 492.221046 654.814975 489.466543 C 653.536498 486.715768 652.545026 483.420802 651.840559 479.581644 C 651.136093 475.738758 650.718631 471.80269 650.591901 467.773437 C 650.465172 463.740458 650.401807 460.378399 650.401807 457.690989 C 650.401807 457.690989 650.174439 458.074905 649.727159 458.842736 C 649.279878 459.610568 648.799052 460.47531 648.288406 461.436963 C 647.777761 462.394889 647.296935 463.293177 646.849654 464.124374 C 646.398646 464.95557 646.175006 465.373032 646.175006 465.373032 C 645.407174 467.035425 644.318792 469.21219 642.913585 471.8996 C 641.504652 474.587011 639.905624 477.211057 638.112774 479.771738 C 636.319925 482.332419 634.3668 484.572549 632.257127 486.492128 C 630.143726 488.411707 628.000507 489.37336 625.823742 489.37336 C 623.646976 489.37336 621.790762 488.378161 620.255099 486.395217 C 618.719436 484.412273 617.951604 482.011868 617.951604 479.197728 C 617.951604 477.788794 618.175245 475.772304 618.622525 473.148259 C 619.073533 470.524213 619.841365 467.900167 620.929747 465.276121 C 622.014402 462.652075 623.456882 460.348581 625.249732 458.365637 C 627.038854 456.378966 629.278984 455.387494 631.966394 455.387494 C 634.14316 455.387494 636.38329 456.826246 638.686784 459.707479 C 640.990279 462.588711 642.399213 466.97206 642.913585 472.861254 Z M 721.825054 462.767623 C 721.694597 461.358689 721.023676 460.016848 719.808564 458.734643 C 718.593452 457.456167 717.150972 456.304419 715.488579 455.279401 C 713.822459 454.254383 711.966245 453.456733 709.919937 452.878996 C 707.873628 452.304986 705.886957 452.014253 703.967378 452.014253 C 702.047799 452.014253 700.385407 452.461534 698.976473 453.359822 C 697.567539 454.254383 696.449338 455.376312 695.614414 456.718154 C 694.783218 458.063723 694.175662 459.56584 693.791746 461.23196 C 693.40783 462.894352 693.217736 464.560472 693.217736 466.222865 C 693.217736 469.678107 694.112297 472.335699 695.905147 474.191913 C 697.694269 476.048127 700.001491 476.976234 702.815631 476.976234 C 706.654789 476.976234 710.848044 475.086474 715.391669 471.310681 C 719.935293 467.534888 723.614176 461.552511 726.432043 453.359822 C 727.967706 453.486552 729.566734 455.119126 731.232854 458.253817 C 732.895247 461.392235 734.401091 465.488579 735.742933 470.542849 C 737.088502 475.600847 738.176885 481.326038 739.008081 487.725877 C 739.839277 494.125716 740.256739 500.656011 740.256739 507.313037 C 740.256739 511.920026 739.999553 516.49347 739.488907 521.040822 C 738.974535 525.584447 738.176885 529.870885 737.088502 533.903865 C 736.000119 537.936844 734.591186 541.679091 732.865428 545.134333 C 731.135943 548.589575 728.992724 551.534172 726.432043 553.968124 C 724.128548 556.144889 721.120587 557.997376 717.408158 559.536766 C 713.69573 561.07243 710.177123 561.840261 706.84861 561.840261 C 703.904014 561.840261 701.406697 561.135794 699.360389 559.726861 C 697.310353 558.317927 696.289062 555.887703 696.289062 552.432461 C 696.289062 551.280713 696.415792 550.032055 696.672978 548.686486 C 696.926437 547.344645 697.377445 545.775435 698.01482 543.982586 C 699.934399 538.864951 703.072817 533.743589 707.42262 528.622227 C 711.776151 523.504592 716.737238 518.446595 722.302153 513.455689 C 727.870796 508.464784 733.759989 503.630427 739.969734 498.960073 C 746.175751 494.285991 752.00158 489.805731 757.439766 485.519293 C 762.881679 481.232854 767.648944 477.199875 771.745289 473.424082 C 775.841633 469.648288 778.655773 466.222865 780.191436 463.151539 C 778.655773 466.222865 775.841633 469.648288 771.745289 473.424082 C 767.648944 477.199875 762.881679 481.232854 757.439766 485.519293 C 752.00158 489.805731 746.175751 494.285991 739.969734 498.960073 C 733.759989 503.630427 727.870796 508.464784 722.302153 513.455689 C 716.737238 518.446595 711.776151 523.504592 707.42262 528.622227 C 703.072817 533.743589 699.934399 538.864951 698.01482 543.982586 C 697.377445 545.775435 696.926437 547.344645 696.672978 548.686486 C 696.415792 550.032055 696.289062 551.280713 696.289062 552.432461 C 696.289062 555.887703 697.310353 558.317927 699.360389 559.726861 C 701.406697 561.135794 703.904014 561.840261 706.84861 561.840261 C 710.177123 561.840261 713.69573 561.07243 717.408158 559.536766 C 721.120587 557.997376 724.128548 556.144889 726.432043 553.968124 C 728.992724 551.534172 731.135943 548.589575 732.865428 545.134333 C 734.591186 541.679091 736.000119 537.936844 737.088502 533.903865 C 738.176885 529.870885 738.974535 525.584447 739.488907 521.040822 C 739.999553 516.49347 740.256739 511.920026 740.256739 507.313037 C 740.256739 500.656011 739.839277 494.125716 739.008081 487.725877 C 738.176885 481.326038 737.088502 475.600847 735.742933 470.542849 C 734.401091 465.488579 732.895247 461.392235 731.232854 458.253817 C 729.566734 455.119126 727.967706 453.486552 726.432043 453.359822 C 723.614176 461.552511 719.935293 467.534888 715.391669 471.310681 C 710.848044 475.086474 706.654789 476.976234 702.815631 476.976234 C 700.001491 476.976234 697.694269 476.048127 695.905147 474.191913 C 694.112297 472.335699 693.217736 469.678107 693.217736 466.222865 C 693.217736 464.560472 693.40783 462.894352 693.791746 461.23196 C 694.175662 459.56584 694.783218 458.063723 695.614414 456.718154 C 696.449338 455.376312 697.567539 454.254383 698.976473 453.359822 C 700.385407 452.461534 702.047799 452.014253 703.967378 452.014253 C 705.886957 452.014253 707.873628 452.304986 709.919937 452.878996 C 711.966245 453.456733 713.822459 454.254383 715.488579 455.279401 C 717.150972 456.304419 718.593452 457.456167 719.808564 458.734643 C 721.023676 460.016848 721.694597 461.358689 721.825054 462.767623 Z M 790.750984 454.697937 C 789.983152 454.44075 788.928316 454.727755 787.582747 455.562679 C 786.240905 456.393875 784.958701 457.545623 783.743589 459.017921 C 782.528477 460.490219 781.47364 462.283069 780.575352 464.392742 C 779.680791 466.506143 779.23351 468.839456 779.23351 471.400137 C 779.23351 472.551885 779.393786 473.960818 779.710609 475.626938 C 780.031161 477.289331 780.575352 478.824994 781.343183 480.233928 C 782.111015 481.642861 783.072668 482.857974 784.224416 483.882991 C 785.376163 484.904282 786.721732 485.418655 788.257395 485.418655 C 790.046517 485.418655 791.712637 484.904282 793.2483 483.882991 C 794.783964 482.857974 796.129532 481.575769 797.28128 480.040106 C 798.433027 478.504443 799.327588 476.808504 799.96869 474.95229 C 800.609792 473.096076 800.926616 471.336772 800.926616 469.67438 C 800.926616 468.522632 800.702976 467.143517 800.255695 465.54449 C 799.808415 463.945462 799.200859 462.439617 798.433027 461.034411 C 797.665196 459.625477 796.703542 458.440184 795.551795 457.482258 C 794.400048 456.520605 793.054479 456.039778 791.518816 456.039778 C 791.00817 456.039778 790.624255 456.296964 790.367068 456.80761 C 790.113609 457.321982 789.983152 457.832628 789.983152 458.347 C 789.983152 459.498748 790.721165 460.58713 792.193464 461.608421 C 793.665762 462.633439 795.61516 463.595092 798.049111 464.489653 C 800.479336 465.384214 803.263657 466.088681 806.398348 466.603053 C 809.536766 467.113699 812.768368 467.370885 816.096881 467.370885 C 819.678853 467.370885 823.167641 467.016788 826.559518 466.312321 C 829.951396 465.607854 832.992903 464.489653 835.680314 462.95399 C 832.992903 464.489653 829.951396 465.607854 826.559518 466.312321 C 823.167641 467.016788 819.678853 467.370885 816.096881 467.370885 C 812.768368 467.370885 809.536766 467.113699 806.398348 466.603053 C 803.263657 466.088681 800.479336 465.384214 798.049111 464.489653 C 795.61516 463.595092 793.665762 462.633439 792.193464 461.608421 C 790.721165 460.58713 789.983152 459.498748 789.983152 458.347 C 789.983152 457.832628 790.113609 457.321982 790.367068 456.80761 C 790.624255 456.296964 791.00817 456.039778 791.518816 456.039778 C 793.054479 456.039778 794.400048 456.520605 795.551795 457.482258 C 796.703542 458.440184 797.665196 459.625477 798.433027 461.034411 C 799.200859 462.439617 799.808415 463.945462 800.255695 465.54449 C 800.702976 467.143517 800.926616 468.522632 800.926616 469.67438 C 800.926616 471.336772 800.609792 473.096076 799.96869 474.95229 C 799.327588 476.808504 798.433027 478.504443 797.28128 480.040106 C 796.129532 481.575769 794.783964 482.857974 793.2483 483.882991 C 791.712637 484.904282 790.046517 485.418655 788.257395 485.418655 C 786.721732 485.418655 785.376163 484.904282 784.224416 483.882991 C 783.072668 482.857974 782.111015 481.642861 781.343183 480.233928 C 780.575352 478.824994 780.031161 477.289331 779.710609 475.626938 C 779.393786 473.960818 779.23351 472.551885 779.23351 471.400137 C 779.23351 468.839456 779.680791 466.506143 780.575352 464.392742 C 781.47364 462.283069 782.528477 460.490219 783.743589 459.017921 C 784.958701 457.545623 786.240905 456.393875 787.582747 455.562679 C 788.928316 454.727755 789.983152 454.44075 790.750984 454.697937 Z M 836.254324 446.840708 C 836.254324 450.169221 836.351234 454.041925 836.545056 458.45882 C 836.73515 462.875716 836.928972 467.41934 837.119066 472.089695 C 837.312888 476.760049 837.473163 481.400584 837.599893 486.011301 C 837.726622 490.618291 837.663257 494.778 837.409798 498.490428 C 838.17763 494.778 839.329377 490.17101 840.865041 484.665732 C 842.400704 479.160454 844.160007 473.848998 846.142951 468.731363 C 848.129622 463.610001 850.17593 459.226652 852.289331 455.577588 C 854.399004 451.928525 856.352129 450.105856 858.144979 450.105856 C 859.423455 450.105856 860.575203 450.937053 861.600221 452.603173 C 862.625239 454.265565 863.329705 455.544042 863.713621 456.442331 C 863.329705 455.544042 862.625239 454.265565 861.600221 452.603173 C 860.575203 450.937053 859.423455 450.105856 858.144979 450.105856 C 856.352129 450.105856 854.399004 451.928525 852.289331 455.577588 C 850.17593 459.226652 848.129622 463.610001 846.142951 468.731363 C 844.160007 473.848998 842.400704 479.160454 840.865041 484.665732 C 839.329377 490.17101 838.17763 494.778 837.409798 498.490428 C 837.663257 494.778 837.726622 490.618291 837.599893 486.011301 C 837.473163 481.400584 837.312888 476.760049 837.119066 472.089695 C 836.928972 467.41934 836.73515 462.875716 836.545056 458.45882 C 836.351234 454.041925 836.254324 450.169221 836.254324 446.840708 Z M 899.615339 470.930493 C 899.104693 465.041299 897.69576 460.65795 895.392265 457.780445 C 893.08877 454.899213 890.84864 453.46046 888.671875 453.46046 C 885.984464 453.46046 883.744334 454.451932 881.951485 456.434876 C 880.158635 458.41782 878.719883 460.721314 877.6315 463.34536 C 876.543118 465.969406 875.775286 468.593452 875.328006 471.217498 C 874.880725 473.841543 874.657085 475.858033 874.657085 477.266967 C 874.657085 480.084834 875.424917 482.481512 876.96058 484.468183 C 878.496243 486.451127 880.352457 487.442599 882.529222 487.442599 C 884.70226 487.442599 886.849207 486.484673 888.95888 484.561367 C 891.072281 482.641788 893.025406 480.401658 894.814528 477.844704 C 896.607377 475.284023 898.206405 472.659977 899.615339 469.972567 C 901.024272 467.281429 902.112655 465.108391 902.880487 463.442271 C 902.880487 463.442271 903.104127 463.028536 903.551407 462.193613 C 903.998688 461.362417 904.479515 460.467855 904.99016 459.506202 C 905.504532 458.548276 905.985359 457.683534 906.43264 456.915703 C 906.87992 456.147871 907.10356 455.763955 907.10356 455.763955 C 907.10356 458.451366 907.166925 461.809697 907.297382 465.842677 C 907.424111 469.875656 907.841573 473.811725 908.542313 477.650883 C 909.24678 481.490041 910.238251 484.788734 911.520456 487.53951 C 912.798932 490.290285 914.591782 491.665673 916.895277 491.665673 C 917.920295 491.665673 919.392593 491.058117 921.312172 489.843005 C 923.231751 488.627892 925.311605 487.092229 927.551735 485.236015 C 929.791865 483.379801 932.09536 481.2664 934.46222 478.899541 C 936.832807 476.532681 939.009572 474.259005 940.992516 472.08224 C 942.975459 469.905475 944.704944 467.922531 946.177242 466.129682 C 947.649541 464.340559 948.641013 462.99499 949.151658 462.100429 C 948.767742 462.99499 947.809816 464.340559 946.270426 466.129682 C 944.734763 467.922531 942.975459 469.905475 940.992516 472.08224 C 939.009572 474.259005 936.832807 476.532681 934.46222 478.899541 C 932.09536 481.2664 929.791865 483.379801 927.551735 485.236015 C 925.311605 487.092229 923.231751 488.627892 921.312172 489.843005 C 919.392593 491.058117 917.920295 491.665673 916.895277 491.665673 C 914.591782 491.665673 912.798932 490.290285 911.520456 487.53951 C 910.238251 484.788734 909.24678 481.490041 908.542313 477.650883 C 907.841573 473.811725 907.424111 469.875656 907.297382 465.842677 C 907.166925 461.809697 907.10356 458.451366 907.10356 455.763955 C 907.10356 455.763955 906.87992 456.147871 906.43264 456.915703 C 905.985359 457.683534 905.504532 458.548276 904.99016 459.506202 C 904.479515 460.467855 903.998688 461.362417 903.551407 462.193613 C 903.104127 463.028536 902.880487 463.442271 902.880487 463.442271 C 902.112655 465.108391 901.024272 467.281429 899.615339 469.972567 C 898.206405 472.659977 896.607377 475.284023 894.814528 477.844704 C 893.025406 480.401658 891.072281 482.641788 888.95888 484.561367 C 886.849207 486.484673 884.70226 487.442599 882.529222 487.442599 C 880.352457 487.442599 878.496243 486.451127 876.96058 484.468183 C 875.424917 482.481512 874.657085 480.084834 874.657085 477.266967 C 874.657085 475.858033 874.880725 473.841543 875.328006 471.217498 C 875.775286 468.593452 876.543118 465.969406 877.6315 463.34536 C 878.719883 460.721314 880.158635 458.41782 881.951485 456.434876 C 883.744334 454.451932 885.984464 453.46046 888.671875 453.46046 C 890.84864 453.46046 893.08877 454.899213 895.392265 457.780445 C 897.69576 460.65795 899.104693 465.041299 899.615339 470.930493 Z M 968.928912 449.889671 C 961.246869 449.889671 955.968959 450.623956 953.087727 452.096255 C 950.206495 453.568553 948.767742 455.454586 948.767742 457.758081 C 948.767742 459.808117 949.856125 462.014701 952.03289 464.385287 C 954.209655 466.752147 956.576515 469.119006 959.137196 471.489593 C 961.69415 473.856453 964.03119 476.126401 966.144591 478.303167 C 968.254264 480.479932 969.312828 482.399511 969.312828 484.065631 C 969.312828 486.238669 968.798455 488.255159 967.777165 490.111373 C 966.752147 491.967587 965.503489 493.566615 964.03119 494.912184 C 962.558892 496.254026 960.926318 497.279043 959.137196 497.98351 C 957.344346 498.687977 955.678226 499.038347 954.142563 499.038347 C 950.944507 499.038347 948.961564 497.633141 948.193732 494.815273 C 947.55263 492.385049 948.286916 490.048008 950.400316 487.807878 C 952.513717 485.567748 955.361403 483.454348 958.943374 481.471404 C 962.529073 479.48846 966.591871 477.5987 971.135496 475.809578 C 975.679121 474.016728 980.06247 472.32079 984.289271 470.718034 C 988.512345 469.119006 992.321684 467.583343 995.713562 466.111045 C 999.105439 464.638746 1001.375388 463.263359 1002.527135 461.984882 C 1001.375388 463.263359 999.105439 464.638746 995.713562 466.111045 C 992.321684 467.583343 988.512345 469.119006 984.289271 470.718034 C 980.06247 472.32079 975.679121 474.016728 971.135496 475.809578 C 966.591871 477.5987 962.529073 479.48846 958.943374 481.471404 C 955.361403 483.454348 952.513717 485.567748 950.400316 487.807878 C 948.286916 490.048008 947.55263 492.385049 948.193732 494.815273 C 948.961564 497.633141 950.944507 499.038347 954.142563 499.038347 C 955.678226 499.038347 957.344346 498.687977 959.137196 497.98351 C 960.926318 497.279043 962.558892 496.254026 964.03119 494.912184 C 965.503489 493.566615 966.752147 491.967587 967.777165 490.111373 C 968.798455 488.255159 969.312828 486.238669 969.312828 484.065631 C 969.312828 482.399511 968.254264 480.479932 966.144591 478.303167 C 964.03119 476.126401 961.69415 473.856453 959.137196 471.489593 C 956.576515 469.119006 954.209655 466.752147 952.03289 464.385287 C 949.856125 462.014701 948.767742 459.808117 948.767742 457.758081 C 948.767742 455.454586 950.206495 453.568553 953.087727 452.096255 C 955.968959 450.623956 961.246869 449.889671 968.928912 449.889671 Z M 1017.503578 388.358779 C 1017.503578 393.476413 1017.600489 398.534411 1017.790583 403.525316 C 1017.984405 408.516221 1018.081316 413.507127 1018.081316 418.501759 C 1018.081316 413.507127 1017.984405 408.516221 1017.790583 403.525316 C 1017.600489 398.534411 1017.503578 393.476413 1017.503578 388.358779 Z M 1092.959804 374.962727 C 1096.545503 373.296607 1100.831942 371.79449 1105.822847 370.448921 C 1110.81748 369.107079 1116.225847 367.88824 1122.047948 366.799857 C 1127.873777 365.715202 1133.982884 364.690184 1140.382723 363.728531 C 1146.782562 362.770605 1153.182401 361.905862 1159.58224 361.138031 C 1167.264283 360.113013 1174.558683 359.345181 1181.472895 358.834536 C 1188.383379 358.320163 1194.719853 357.969794 1200.47859 357.775972 C 1206.241054 357.585878 1211.23196 357.488967 1215.455033 357.488967 C 1219.681834 357.488967 1222.816526 357.488967 1224.862834 357.488967 C 1222.816526 357.488967 1219.681834 357.488967 1215.455033 357.488967 C 1211.23196 357.488967 1206.241054 357.585878 1200.47859 357.775972 C 1194.719853 357.969794 1188.383379 358.320163 1181.472895 358.834536 C 1174.558683 359.345181 1167.264283 360.113013 1159.58224 361.138031 C 1153.182401 361.905862 1146.782562 362.770605 1140.382723 363.728531 C 1133.982884 364.690184 1127.873777 365.715202 1122.047948 366.799857 C 1116.225847 367.88824 1110.81748 369.107079 1105.822847 370.448921 C 1100.831942 371.79449 1096.545503 373.296607 1092.959804 374.962727 Z M 1159.966156 353.649809 C 1159.839426 357.105051 1159.649332 362.386689 1159.392146 369.490995 C 1159.134959 376.591573 1158.944865 384.817808 1158.814408 394.162244 C 1158.687679 403.506679 1158.527403 413.618947 1158.337309 424.499046 C 1158.143488 435.379145 1158.016758 446.385973 1157.953393 457.523259 C 1157.886301 468.656817 1157.886301 479.536916 1157.953393 490.159828 C 1158.016758 500.786468 1158.113669 510.51482 1158.240398 519.344883 C 1158.367128 528.178674 1158.560949 535.73026 1158.814408 541.999642 C 1159.071595 548.272752 1159.45551 552.562917 1159.966156 554.866412 C 1159.45551 552.562917 1159.071595 548.272752 1158.814408 541.999642 C 1158.560949 535.73026 1158.367128 528.178674 1158.240398 519.344883 C 1158.113669 510.51482 1158.016758 500.786468 1157.953393 490.159828 C 1157.886301 479.536916 1157.886301 468.656817 1157.953393 457.523259 C 1158.016758 446.385973 1158.143488 435.379145 1158.337309 424.499046 C 1158.527403 413.618947 1158.687679 403.506679 1158.814408 394.162244 C 1158.944865 384.817808 1159.134959 376.591573 1159.392146 369.490995 C 1159.649332 362.386689 1159.839426 357.105051 1159.966156 353.649809 Z M 1188.577201 372.491502 C 1188.193285 375.436099 1187.839188 380.203364 1187.518637 386.797024 C 1187.201813 393.386957 1186.944627 400.908725 1186.750805 409.354872 C 1186.560711 417.804747 1186.337071 426.698175 1186.079884 436.042611 C 1185.822698 445.387047 1185.599058 454.284202 1185.408964 462.730349 C 1185.215142 471.180224 1184.961683 478.731811 1184.641132 485.388836 C 1184.320581 492.042134 1183.966484 496.842945 1183.582568 499.787542 C 1183.582568 497.741233 1184.033576 495.180552 1184.928137 492.109226 C 1185.822698 489.034172 1187.041537 485.80257 1188.577201 482.410693 C 1190.112864 479.018816 1191.838621 475.59712 1193.7582 472.13815 C 1195.681506 468.682908 1197.66445 465.578036 1199.710759 462.82726 C 1201.760794 460.076485 1203.807103 457.836355 1205.857139 456.10687 C 1207.903447 454.381113 1209.696297 453.51637 1211.23196 453.51637 C 1212.126521 453.51637 1212.894352 453.769829 1213.535454 454.284202 C 1214.817659 455.30922 1215.775584 456.844883 1216.416687 458.891192 C 1217.057789 460.941227 1217.631799 463.211176 1218.142444 465.708492 C 1218.656817 468.202081 1219.104097 470.826127 1219.488013 473.58063 C 1219.871929 476.331405 1220.382574 478.85854 1221.023676 481.162035 C 1221.664778 483.469257 1222.559339 485.482019 1223.711087 487.211504 C 1224.862834 488.940989 1226.398497 489.995825 1228.321803 490.379741 C 1230.241382 490.763657 1232.224326 490.413287 1234.270635 489.324905 C 1236.32067 488.236522 1238.33716 486.700859 1240.320104 484.714188 C 1242.303047 482.731244 1244.192808 480.554479 1245.985657 478.187619 C 1247.774779 475.82076 1249.377535 473.547084 1250.782741 471.370318 C 1252.191675 469.197281 1253.376968 467.30752 1254.334894 465.708492 C 1255.296547 464.105737 1255.840738 463.244722 1255.967468 463.114265 C 1255.840738 463.244722 1255.296547 464.105737 1254.334894 465.708492 C 1253.376968 467.30752 1252.191675 469.197281 1250.782741 471.370318 C 1249.377535 473.547084 1247.774779 475.82076 1245.985657 478.187619 C 1244.192808 480.554479 1242.303047 482.731244 1240.320104 484.714188 C 1238.33716 486.700859 1236.32067 488.236522 1234.270635 489.324905 C 1232.224326 490.413287 1230.241382 490.763657 1228.321803 490.379741 C 1226.398497 489.869096 1224.862834 488.780713 1223.711087 487.114593 C 1222.559339 485.452201 1221.664778 483.469257 1221.023676 481.162035 C 1220.382574 478.85854 1219.871929 476.331405 1219.488013 473.58063 C 1219.104097 470.826127 1218.656817 468.202081 1218.142444 465.708492 C 1217.631799 463.211176 1217.057789 460.941227 1216.416687 458.891192 C 1215.775584 456.844883 1214.817659 455.30922 1213.535454 454.284202 C 1212.894352 453.769829 1212.126521 453.51637 1211.23196 453.51637 C 1209.696297 453.51637 1207.903447 454.381113 1205.857139 456.10687 C 1203.807103 457.836355 1201.760794 460.076485 1199.710759 462.82726 C 1197.66445 465.578036 1195.681506 468.682908 1193.7582 472.13815 C 1191.838621 475.59712 1190.112864 479.018816 1188.577201 482.410693 C 1187.041537 485.80257 1185.822698 489.034172 1184.928137 492.109226 C 1184.033576 495.180552 1183.582568 497.741233 1183.582568 499.787542 C 1183.966484 496.842945 1184.320581 492.042134 1184.641132 485.388836 C 1184.961683 478.731811 1185.215142 471.180224 1185.408964 462.730349 C 1185.599058 454.284202 1185.822698 445.387047 1186.079884 436.042611 C 1186.337071 426.698175 1186.560711 417.804747 1186.750805 409.354872 C 1186.944627 400.908725 1187.201813 393.386957 1187.518637 386.797024 C 1187.839188 380.203364 1188.193285 375.436099 1188.577201 372.491502 Z M 1253.086236 479.607735 C 1255.009542 479.734464 1257.249672 479.156727 1259.806626 477.87825 C 1262.367307 476.599773 1264.831077 475.030564 1267.201664 473.17435 C 1269.568523 471.318136 1271.551467 469.271827 1273.150495 467.031697 C 1274.75325 464.791567 1275.550901 462.775078 1275.550901 460.982228 C 1275.550901 458.805463 1274.846434 456.949249 1273.441227 455.413585 C 1272.032294 453.877922 1270.04935 453.110091 1267.488669 453.110091 C 1265.185174 453.110091 1263.168684 454.071744 1261.4392 455.991323 C 1259.713442 457.910902 1258.207598 460.311307 1256.929121 463.188812 C 1255.646917 466.070044 1254.688991 469.174917 1254.047889 472.503429 C 1253.406787 475.831942 1253.086236 478.839903 1253.086236 481.527314 C 1253.086236 485.877117 1254.047889 489.399451 1255.967468 492.086862 C 1257.887047 494.774272 1260.895008 496.119841 1264.991353 496.119841 C 1267.552034 496.119841 1270.783635 495.124642 1274.686158 493.141698 C 1278.592408 491.158755 1282.688752 488.568255 1286.975191 485.366472 C 1291.265357 482.164689 1295.61516 478.616263 1300.032055 474.710013 C 1304.44895 470.80749 1308.511749 466.871422 1312.224177 462.901807 C 1308.511749 466.871422 1304.44895 470.80749 1300.032055 474.710013 C 1295.61516 478.616263 1291.265357 482.164689 1286.975191 485.366472 C 1282.688752 488.568255 1278.592408 491.158755 1274.686158 493.141698 C 1270.783635 495.124642 1267.552034 496.119841 1264.991353 496.119841 C 1260.895008 496.119841 1257.887047 494.774272 1255.967468 492.086862 C 1254.047889 489.399451 1253.086236 485.877117 1253.086236 481.527314 C 1253.086236 478.839903 1253.406787 475.831942 1254.047889 472.503429 C 1254.688991 469.174917 1255.646917 466.070044 1256.929121 463.188812 C 1258.207598 460.311307 1259.713442 457.910902 1261.4392 455.991323 C 1263.168684 454.071744 1265.185174 453.110091 1267.488669 453.110091 C 1270.04935 453.110091 1272.032294 453.877922 1273.441227 455.413585 C 1274.846434 456.949249 1275.550901 458.805463 1275.550901 460.982228 C 1275.550901 462.775078 1274.75325 464.791567 1273.150495 467.031697 C 1271.551467 469.271827 1269.568523 471.318136 1267.201664 473.17435 C 1264.831077 475.030564 1262.367307 476.599773 1259.806626 477.87825 C 1257.249672 479.156727 1255.009542 479.734464 1253.086236 479.607735 Z M 1322.783725 454.996124 C 1322.015893 454.742665 1320.961057 455.02967 1319.615488 455.860866 C 1318.273646 456.692062 1316.991442 457.84381 1315.77633 459.316108 C 1314.561218 460.788406 1313.502654 462.581256 1312.608093 464.694656 C 1311.713532 466.80433 1311.262524 469.14137 1311.262524 471.702052 C 1311.262524 472.853799 1311.422799 474.262733 1311.74335 475.925125 C 1312.063901 477.587518 1312.608093 479.126908 1313.375924 480.532115 C 1314.143756 481.941048 1315.105409 483.156161 1316.257156 484.181178 C 1317.408904 485.206196 1318.750745 485.716842 1320.286409 485.716842 C 1322.079258 485.716842 1323.745378 485.206196 1325.281041 484.181178 C 1326.816704 483.156161 1328.158546 481.877684 1329.310293 480.342021 C 1330.465768 478.806357 1331.360329 477.110419 1332.001431 475.254204 C 1332.638806 473.39799 1332.959357 471.638687 1332.959357 469.972567 C 1332.959357 468.820819 1332.735717 467.445432 1332.288436 465.846404 C 1331.841156 464.243649 1331.2336 462.741531 1330.465768 461.332598 C 1329.694209 459.923664 1328.736283 458.742098 1327.584536 457.780445 C 1326.432789 456.822519 1325.08722 456.341693 1323.551557 456.341693 C 1323.040911 456.341693 1322.656995 456.598879 1322.399809 457.109524 C 1322.142623 457.620169 1322.015893 458.134542 1322.015893 458.645187 C 1322.015893 459.796935 1322.750179 460.885317 1324.222477 461.910335 C 1325.694776 462.931626 1327.647901 463.893279 1330.081852 464.78784 C 1332.512077 465.686128 1335.296398 466.390595 1338.431089 466.90124 C 1341.569507 467.411886 1344.801109 467.669072 1348.129622 467.669072 C 1351.711594 467.669072 1355.200382 467.318702 1358.592259 466.614235 C 1361.984136 465.909769 1365.025644 464.78784 1367.713055 463.252177 C 1365.025644 464.78784 1361.984136 465.909769 1358.592259 466.614235 C 1355.200382 467.318702 1351.711594 467.669072 1348.129622 467.669072 C 1344.801109 467.669072 1341.569507 467.411886 1338.431089 466.90124 C 1335.296398 466.390595 1332.512077 465.686128 1330.081852 464.78784 C 1327.647901 463.893279 1325.694776 462.931626 1324.222477 461.910335 C 1322.750179 460.885317 1322.015893 459.796935 1322.015893 458.645187 C 1322.015893 458.134542 1322.142623 457.620169 1322.399809 457.109524 C 1322.656995 456.598879 1323.040911 456.341693 1323.551557 456.341693 C 1325.08722 456.341693 1326.432789 456.822519 1327.584536 457.780445 C 1328.736283 458.742098 1329.694209 459.923664 1330.465768 461.332598 C 1331.2336 462.741531 1331.841156 464.243649 1332.288436 465.846404 C 1332.735717 467.445432 1332.959357 468.820819 1332.959357 469.972567 C 1332.959357 471.638687 1332.638806 473.39799 1332.001431 475.254204 C 1331.360329 477.110419 1330.465768 478.806357 1329.310293 480.342021 C 1328.158546 481.877684 1326.816704 483.156161 1325.281041 484.181178 C 1323.745378 485.206196 1322.079258 485.716842 1320.286409 485.716842 C 1318.750745 485.716842 1317.408904 485.206196 1316.257156 484.181178 C 1315.105409 483.156161 1314.143756 481.941048 1313.375924 480.532115 C 1312.608093 479.126908 1312.063901 477.587518 1311.74335 475.925125 C 1311.422799 474.262733 1311.262524 472.853799 1311.262524 471.702052 C 1311.262524 469.14137 1311.713532 466.80433 1312.608093 464.694656 C 1313.502654 462.581256 1314.561218 460.788406 1315.77633 459.316108 C 1316.991442 457.84381 1318.273646 456.692062 1319.615488 455.860866 C 1320.961057 455.02967 1322.015893 454.742665 1322.783725 454.996124 Z M 1368.287065 448.622376 C 1368.287065 451.950889 1368.383975 455.823593 1368.577797 460.240488 C 1368.767891 464.657383 1368.961713 469.201008 1369.151807 473.871362 C 1369.345629 478.545444 1369.502177 483.182252 1369.632634 487.792969 C 1369.759363 492.399958 1369.695998 496.559667 1369.438812 500.272096 C 1370.206644 496.559667 1371.358391 491.952678 1372.897781 486.4474 C 1374.433445 480.945849 1376.192748 475.630666 1378.175692 470.513031 C 1380.158635 465.391669 1382.208671 461.008319 1384.318344 457.359256 C 1386.431745 453.710192 1388.38487 451.887524 1390.177719 451.887524 C 1391.456196 451.887524 1392.607944 452.71872 1393.632962 454.38484 C 1394.654252 456.047233 1395.358719 457.329437 1395.742635 458.223998 C 1395.358719 457.329437 1394.654252 456.047233 1393.632962 454.38484 C 1392.607944 452.71872 1391.456196 451.887524 1390.177719 451.887524 C 1388.38487 451.887524 1386.431745 453.710192 1384.318344 457.359256 C 1382.208671 461.008319 1380.158635 465.391669 1378.175692 470.513031 C 1376.192748 475.630666 1374.433445 480.945849 1372.897781 486.4474 C 1371.358391 491.952678 1370.206644 496.559667 1369.438812 500.272096 C 1369.695998 496.559667 1369.759363 492.399958 1369.632634 487.792969 C 1369.502177 483.182252 1369.345629 478.545444 1369.151807 473.871362 C 1368.961713 469.201008 1368.767891 464.657383 1368.577797 460.240488 C 1368.383975 455.823593 1368.287065 451.950889 1368.287065 448.622376 Z M 1406.302183 481.139671 C 1408.225489 481.270128 1410.465619 480.69239 1413.022573 479.413913 C 1415.583254 478.131709 1418.047024 476.566227 1420.417611 474.710013 C 1422.78447 472.853799 1424.767414 470.803763 1426.366442 468.563633 C 1427.969197 466.32723 1428.766848 464.310741 1428.766848 462.517891 C 1428.766848 460.341126 1428.062381 458.484912 1426.657174 456.949249 C 1425.248241 455.413585 1423.265297 454.645754 1420.704616 454.645754 C 1418.401121 454.645754 1416.384631 455.60368 1414.655147 457.526986 C 1412.929389 459.446565 1411.423545 461.84697 1410.145068 464.724475 C 1408.862864 467.605707 1407.904938 470.71058 1407.263836 474.039092 C 1406.622734 477.363878 1406.302183 480.371839 1406.302183 483.062977 C 1406.302183 487.41278 1407.263836 490.935115 1409.183415 493.622525 C 1411.102994 496.309936 1414.110955 497.651777 1418.2073 497.651777 C 1420.767981 497.651777 1423.999583 496.660305 1427.905833 494.677362 C 1431.808355 492.694418 1435.904699 490.100191 1440.191138 486.902135 C 1444.481304 483.700352 1448.831107 480.148199 1453.248002 476.245676 C 1457.664897 472.343154 1461.727696 468.407085 1465.440124 464.43747 C 1461.727696 468.407085 1457.664897 472.343154 1453.248002 476.245676 C 1448.831107 480.148199 1444.481304 483.700352 1440.191138 486.902135 C 1435.904699 490.100191 1431.808355 492.694418 1427.905833 494.677362 C 1423.999583 496.660305 1420.767981 497.651777 1418.2073 497.651777 C 1414.110955 497.651777 1411.102994 496.309936 1409.183415 493.622525 C 1407.263836 490.935115 1406.302183 487.41278 1406.302183 483.062977 C 1406.302183 480.371839 1406.622734 477.363878 1407.263836 474.039092 C 1407.904938 470.71058 1408.862864 467.605707 1410.145068 464.724475 C 1411.423545 461.84697 1412.929389 459.446565 1414.655147 457.526986 C 1416.384631 455.60368 1418.401121 454.645754 1420.704616 454.645754 C 1423.265297 454.645754 1425.248241 455.413585 1426.657174 456.949249 C 1428.062381 458.484912 1428.766848 460.341126 1428.766848 462.517891 C 1428.766848 464.310741 1427.969197 466.32723 1426.366442 468.563633 C 1424.767414 470.803763 1422.78447 472.853799 1420.417611 474.710013 C 1418.047024 476.566227 1415.583254 478.131709 1413.022573 479.413913 C 1410.465619 480.69239 1408.225489 481.270128 1406.302183 481.139671 Z M 1469.279282 449.967945 C 1467.870348 455.599952 1466.815512 461.23196 1466.111045 466.863967 C 1465.406578 472.495974 1465.056208 478.191347 1465.056208 483.950083 C 1465.056208 489.839277 1465.440124 495.791836 1466.207956 501.807759 C 1468.000805 497.964874 1469.793655 493.935621 1471.582777 489.70882 C 1473.375626 485.485747 1475.265386 481.262673 1477.24833 477.039599 C 1479.231274 472.812798 1481.344674 468.716454 1483.584804 464.750567 C 1485.824934 460.780952 1488.22534 457.135615 1490.782294 453.807103 L 1491.166209 453.423187 C 1491.423396 453.423187 1491.680582 453.807103 1491.937768 454.574934 C 1492.191227 455.342766 1492.414868 456.207508 1492.608689 457.165434 C 1492.798783 458.127087 1492.959059 459.085013 1493.089516 460.046666 C 1493.216245 461.004592 1493.27961 461.67924 1493.27961 462.063156 C 1493.536796 466.927332 1493.857347 472.525793 1494.241263 478.862267 C 1494.625179 485.198742 1495.199189 490.797203 1495.967021 495.661379 C 1497.633141 494.382902 1499.64963 491.919132 1502.01649 488.270068 C 1504.383349 484.621004 1506.84712 480.878757 1509.407801 477.039599 C 1511.968482 473.196714 1514.465798 469.741472 1516.896022 466.670146 C 1519.326246 463.598819 1521.376282 461.999791 1523.038675 461.869334 C 1524.190422 464.172829 1524.9918 467.311248 1525.43908 471.277135 C 1525.886361 475.24675 1526.430552 479.212637 1527.071654 483.182252 C 1527.712756 487.151867 1528.830958 490.573563 1530.433713 493.454795 C 1532.032741 496.336027 1534.559876 497.774779 1538.015118 497.774779 C 1540.318613 497.774779 1542.849475 496.462756 1545.60025 493.838711 C 1548.351026 491.214665 1551.105528 488.079974 1553.856304 484.43091 C 1556.607079 480.781846 1559.134214 477.069418 1561.441436 473.293625 C 1563.744931 469.517832 1565.53778 466.480051 1566.816257 464.172829 C 1565.53778 466.480051 1563.744931 469.517832 1561.441436 473.293625 C 1559.134214 477.069418 1556.607079 480.781846 1553.856304 484.43091 C 1551.105528 488.079974 1548.351026 491.214665 1545.60025 493.838711 C 1542.849475 496.462756 1540.318613 497.774779 1538.015118 497.774779 C 1534.559876 497.774779 1532.032741 496.336027 1530.433713 493.454795 C 1528.830958 490.573563 1527.712756 487.151867 1527.071654 483.182252 C 1526.430552 479.212637 1525.886361 475.24675 1525.43908 471.277135 C 1524.9918 467.311248 1524.190422 464.172829 1523.038675 461.869334 C 1521.376282 461.999791 1519.326246 463.598819 1516.896022 466.670146 C 1514.465798 469.741472 1511.968482 473.196714 1509.407801 477.039599 C 1506.84712 480.878757 1504.383349 484.621004 1502.01649 488.270068 C 1499.64963 491.919132 1497.633141 494.382902 1495.967021 495.661379 C 1495.199189 490.797203 1494.625179 485.198742 1494.241263 478.862267 C 1493.857347 472.525793 1493.536796 466.927332 1493.27961 462.063156 C 1493.27961 461.67924 1493.216245 461.004592 1493.089516 460.046666 C 1492.959059 459.085013 1492.798783 458.127087 1492.608689 457.165434 C 1492.414868 456.207508 1492.191227 455.342766 1491.937768 454.574934 C 1491.680582 453.807103 1491.423396 453.423187 1491.166209 453.423187 L 1490.782294 453.807103 C 1488.22534 457.135615 1485.824934 460.780952 1483.584804 464.750567 C 1481.344674 468.716454 1479.231274 472.812798 1477.24833 477.039599 C 1475.265386 481.262673 1473.375626 485.485747 1471.582777 489.70882 C 1469.793655 493.935621 1468.000805 497.964874 1466.207956 501.807759 C 1465.440124 495.791836 1465.056208 489.839277 1465.056208 483.950083 C 1465.056208 478.191347 1465.406578 472.495974 1466.111045 466.863967 C 1466.815512 461.23196 1467.870348 455.599952 1469.279282 449.967945 Z M 1469.279282 449.967945 " transform="matrix(1.048, 0, 0, 1.048, 20, 20)"/>
<path fill-rule="nonzero" fill="rgb(0%, 0%, 100%)" fill-opacity="1" d="M 1559.804688 491.566406 L 1565.046875 491.566406 C 1565.046875 498.550781 1554.566406 498.550781 1554.566406 491.566406 C 1554.566406 484.578125 1565.046875 484.578125 1565.046875 491.566406 "/>
<path fill-rule="nonzero" fill="rgb(0%, 0%, 100%)" fill-opacity="0.7" d="M 1559.804688 491.566406 L 1566.09375 491.566406 C 1566.09375 495.039062 1563.277344 497.851562 1559.804688 497.851562 C 1556.332031 497.851562 1553.515625 495.039062 1553.515625 491.566406 C 1553.515625 488.09375 1556.332031 485.277344 1559.804688 485.277344 C 1563.277344 485.277344 1566.09375 488.09375 1566.09375 491.566406 "/>
<path fill-rule="nonzero" fill="rgb(0%, 0%, 100%)" fill-opacity="0.4" d="M 1559.804688 491.566406 L 1567.664062 491.566406 C 1567.664062 495.90625 1564.144531 499.425781 1559.804688 499.425781 C 1555.464844 499.425781 1551.945312 495.90625 1551.945312 491.566406 C 1551.945312 487.222656 1555.464844 483.703125 1559.804688 483.703125 C 1564.144531 483.703125 1567.664062 487.222656 1567.664062 491.566406 "/>
<path fill-rule="nonzero" fill="rgb(0%, 0%, 100%)" fill-opacity="0.1" d="M 1559.804688 491.566406 L 1569.238281 491.566406 C 1569.238281 496.773438 1565.015625 500.996094 1559.804688 500.996094 C 1554.597656 500.996094 1550.375 496.773438 1550.375 491.566406 C 1550.375 486.355469 1554.597656 482.132812 1559.804688 482.132812 C 1565.015625 482.132812 1569.238281 486.355469 1569.238281 491.566406 "/>
</svg>
